<svg xmlns="http://www.w3.org/2000/svg" width="32" height="32" viewBox="0 0 32 32"><rect width="100%" height="100%" fill="#7295f7"/><path fill="#FFFFFF" d="m13.14 10.6-.5.95q-.09.16-.19.23t-.25.07q-.16 0-.34-.12-.19-.11-.44-.26-.26-.14-.6-.26-.34-.11-.81-.11-.42 0-.73.1-.32.1-.53.28t-.32.43q-.1.25-.1.55 0 .39.21.64.21.26.57.44.35.17.8.32.45.14.92.3t.92.38q.45.21.81.54.35.32.56.8.22.47.22 1.14 0 .74-.25 1.38-.26.64-.74 1.12-.48.47-1.18.75-.7.27-1.6.27-.52 0-1.02-.1t-.96-.29-.87-.45q-.4-.26-.72-.58l.59-.97q.08-.11.2-.18t.25-.07q.19 0 .41.15.22.16.52.35.3.18.7.34.4.15.96.15.86 0 1.34-.41.47-.41.47-1.17 0-.43-.21-.7-.22-.27-.57-.45-.35-.19-.8-.32-.45-.12-.92-.27-.46-.15-.91-.36t-.81-.55q-.35-.34-.56-.84-.22-.51-.22-1.25 0-.6.24-1.16t.69-.99q.45-.44 1.11-.7t1.51-.26q.96 0 1.77.3.81.29 1.38.84m3.38 4.4q0 .89.24 1.6t.68 1.2q.45.49 1.08.75.64.27 1.43.27.8 0 1.43-.27.63-.26 1.08-.75.44-.49.68-1.2t.24-1.6-.24-1.6-.68-1.21q-.45-.49-1.08-.75-.63-.27-1.43-.27-.79 0-1.43.27-.63.26-1.08.75-.44.5-.68 1.21t-.24 1.6m6.73 4.54 2.75 3h-1.66q-.36 0-.65-.1-.29-.09-.53-.35l-1.59-1.76q-.38.1-.78.16-.4.05-.84.05-1.23 0-2.24-.42-1.01-.41-1.74-1.15-.72-.75-1.12-1.76-.4-1.02-.4-2.21t.4-2.21 1.12-1.76q.73-.74 1.74-1.16 1.01-.41 2.24-.41.83 0 1.55.19.73.19 1.34.54t1.09.84q.48.5.82 1.12.34.61.52 1.33.17.72.17 1.52 0 .73-.15 1.39t-.43 1.24-.69 1.06q-.4.49-.92.85"/></svg>