<svg width="344" height="252" viewBox="0 0 344 252" fill="none" xmlns="http://www.w3.org/2000/svg">
<path d="M152.957 93.3604C159.163 93.3604 163.681 92.3109 166.51 90.2119C169.339 88.1129 170.753 85.1469 170.753 81.3139C170.753 79.0324 170.251 77.0702 169.248 75.4275C168.335 73.7848 166.966 72.3246 165.141 71.047C163.407 69.6781 161.262 68.446 158.707 67.3509C156.152 66.1645 153.231 65.0237 149.946 63.9286C146.66 62.7422 143.466 61.4645 140.363 60.0956C137.352 58.6354 134.66 56.8558 132.287 54.7568C130.005 52.6578 128.134 50.1481 126.674 47.2278C125.305 44.3074 124.621 40.7938 124.621 36.6871C124.621 28.1085 127.587 21.4008 133.519 16.5639C139.451 11.6358 147.527 9.17176 157.749 9.17176C163.681 9.17176 168.928 9.85623 173.491 11.2252C178.146 12.5028 181.796 13.9174 184.443 15.4688L179.104 29.4318C176.001 27.6978 172.579 26.3745 168.837 25.4619C165.186 24.5493 161.399 24.093 157.475 24.093C152.821 24.093 149.17 25.0512 146.524 26.9677C143.968 28.8842 142.691 31.5764 142.691 35.0444C142.691 37.1434 143.101 38.9686 143.923 40.5201C144.835 41.9802 146.067 43.3035 147.619 44.4899C149.261 45.6763 151.132 46.7715 153.231 47.7753C155.422 48.7792 157.794 49.7375 160.35 50.6501C164.821 52.2928 168.791 53.9811 172.259 55.7151C175.818 57.3578 178.784 59.3655 181.157 61.7383C183.621 64.0199 185.492 66.7577 186.77 69.9518C188.047 73.0547 188.686 76.8421 188.686 81.3139C188.686 89.8925 185.629 96.5546 179.515 101.3C173.491 105.954 164.639 108.282 152.957 108.282C149.033 108.282 145.428 108.008 142.143 107.46C138.949 107.004 136.074 106.411 133.519 105.681C131.055 104.951 128.91 104.22 127.085 103.49C125.26 102.669 123.799 101.939 122.704 101.3L127.769 87.2002C130.233 88.5692 133.564 89.9381 137.762 91.307C141.96 92.6759 147.025 93.3604 152.957 93.3604Z" fill="white"/>
<path d="M309.794 107.597C304.866 107.506 300.759 106.958 297.474 105.954C294.28 104.951 291.724 103.536 289.808 101.711C287.891 99.7943 286.522 97.4672 285.701 94.7293C284.971 91.9002 284.606 88.7061 284.606 85.1469V2.73784L301.17 0V81.9984C301.17 84.0061 301.307 85.6944 301.581 87.0634C301.946 88.4323 302.539 89.6187 303.36 90.6226C304.181 91.5352 305.277 92.2653 306.646 92.8128C308.106 93.2691 309.931 93.6342 312.121 93.908L309.794 107.597Z" fill="white"/>
<path d="M342.22 106.228H325.656V34.6337H342.22V106.228ZM344 13.6892C344 16.7921 342.996 19.2562 340.988 21.0814C338.981 22.9066 336.608 23.8192 333.87 23.8192C331.041 23.8192 328.622 22.9066 326.615 21.0814C324.607 19.2562 323.603 16.7921 323.603 13.6892C323.603 10.4951 324.607 7.98537 326.615 6.16015C328.622 4.33491 331.041 3.4223 333.87 3.4223C336.608 3.4223 338.981 4.33491 340.988 6.16015C342.996 7.98537 344 10.4951 344 13.6892Z" fill="white"/>
<path d="M25.1881 207.309C20.26 207.217 16.1533 206.67 12.8679 205.666C9.67371 204.662 7.11839 203.248 5.2019 201.422C3.28541 199.506 1.91649 197.179 1.09514 194.441C0.365046 191.612 0 188.418 0 184.858V102.449L16.5639 99.7115V181.71C16.5639 183.718 16.7008 185.406 16.9746 186.775C17.3397 188.144 17.9329 189.33 18.7542 190.334C19.5756 191.247 20.6707 191.977 22.0396 192.524C23.4998 192.981 25.325 193.346 27.5153 193.619L25.1881 207.309Z" fill="white"/>
<path d="M263.002 203.749C259.808 204.571 255.655 205.392 250.545 206.214C245.434 207.126 239.821 207.582 233.707 207.582C227.957 207.582 223.121 206.761 219.196 205.118C215.363 203.476 212.26 201.194 209.888 198.274C207.606 195.353 205.963 191.886 204.96 187.87C203.956 183.763 203.454 179.291 203.454 174.455V134.345H220.018V171.854C220.018 179.52 221.113 184.995 223.303 188.281C225.585 191.566 229.509 193.209 235.076 193.209C237.084 193.209 239.183 193.118 241.373 192.935C243.654 192.752 245.343 192.524 246.438 192.251V134.345H263.002V203.749Z" fill="white"/>
<path d="M342.537 134.345C335.145 161.541 326.566 186.182 316.801 208.267C314.976 212.374 313.105 215.887 311.189 218.808C309.272 221.728 307.128 224.146 304.755 226.063C302.382 227.979 299.736 229.348 296.815 230.17C293.895 231.082 290.518 231.539 286.685 231.539C284.13 231.539 281.575 231.265 279.019 230.717C276.555 230.17 274.684 229.576 273.407 228.938L276.418 215.659C279.704 216.937 282.943 217.576 286.138 217.576C290.427 217.576 293.758 216.526 296.131 214.427C298.595 212.419 300.739 209.271 302.565 204.982C297.363 194.943 292.343 183.991 287.507 172.127C282.761 160.263 278.517 147.669 274.776 134.345H292.435C293.347 138.178 294.442 142.331 295.72 146.802C297.089 151.274 298.549 155.837 300.101 160.492C301.652 165.055 303.295 169.618 305.029 174.181C306.763 178.744 308.497 182.988 310.231 186.912C313.151 178.789 315.889 170.165 318.444 161.039C320.999 151.822 323.327 142.924 325.426 134.345H342.537Z" fill="white"/>
<circle cx="153.243" cy="170.449" r="51.3927" fill="url(#paint0_linear_7_289)" fill-opacity="0.3"/>
<circle cx="153.242" cy="170.449" r="65.8881" fill="url(#paint1_linear_7_289)" fill-opacity="0.2"/>
<circle cx="153.243" cy="170.449" r="81.2619" fill="url(#paint2_linear_7_289)" fill-opacity="0.1"/>
<path d="M179.385 197.218H154.517V208.199H191.556L179.385 197.218Z" fill="white"/>
<path d="M180.135 143.712C194.887 158.464 194.887 182.382 180.135 197.135C165.382 211.887 141.464 211.887 126.712 197.135C111.959 182.382 111.959 158.464 126.712 143.712C141.464 128.959 165.382 128.959 180.135 143.712Z" fill="white"/>
<path d="M175 170.5C175 182.374 165.374 192 153.5 192C141.626 192 132 182.374 132 170.5C132 158.626 141.626 149 153.5 149C165.374 149 175 158.626 175 170.5Z" fill="#86A5FA"/>
<path d="M158.367 170.548C158.367 173.312 156.127 175.552 153.363 175.552C150.599 175.552 148.359 173.312 148.359 170.548C148.359 167.784 150.599 165.544 153.363 165.544C156.127 165.544 158.367 167.784 158.367 170.548Z" fill="white"/>
<path fill-rule="evenodd" clip-rule="evenodd" d="M260.487 95.4874C275.24 80.735 275.24 56.8167 260.487 42.0643C245.735 27.3119 221.817 27.3119 207.064 42.0643C192.312 56.8167 192.312 80.735 207.064 95.4874C221.817 110.24 245.735 110.24 260.487 95.4874ZM233.853 90.3527C245.727 90.3527 255.353 80.7269 255.353 68.8527C255.353 56.9786 245.727 47.3527 233.853 47.3527C221.979 47.3527 212.353 56.9786 212.353 68.8527C212.353 80.7269 221.979 90.3527 233.853 90.3527Z" fill="white"/>
<path fill-rule="evenodd" clip-rule="evenodd" d="M98.1348 196.135C112.887 181.382 112.887 157.464 98.1348 142.712C83.3825 127.959 59.4641 127.959 44.7117 142.712C29.9594 157.464 29.9594 181.382 44.7117 196.135C59.4641 210.887 83.3825 210.887 98.1348 196.135ZM71.5002 191C83.3743 191 93.0002 181.374 93.0002 169.5C93.0002 157.626 83.3743 148 71.5002 148C59.6261 148 50.0002 157.626 50.0002 169.5C50.0002 181.374 59.6261 191 71.5002 191Z" fill="white"/>
<defs>
<linearGradient id="paint0_linear_7_289" x1="153.243" y1="119.056" x2="153.243" y2="228.98" gradientUnits="userSpaceOnUse">
<stop stop-color="white"/>
<stop offset="1" stop-color="white" stop-opacity="0"/>
</linearGradient>
<linearGradient id="paint1_linear_7_289" x1="153.242" y1="104.561" x2="153.242" y2="240.62" gradientUnits="userSpaceOnUse">
<stop stop-color="white"/>
<stop offset="1" stop-color="white" stop-opacity="0"/>
</linearGradient>
<linearGradient id="paint2_linear_7_289" x1="153.243" y1="89.1872" x2="153.243" y2="264.34" gradientUnits="userSpaceOnUse">
<stop stop-color="white"/>
<stop offset="1" stop-color="white" stop-opacity="0"/>
</linearGradient>
</defs>
</svg>
