<svg xmlns="http://www.w3.org/2000/svg" width="50" height="50" viewBox="0 0 50 50"><rect width="100%" height="100%" fill="#D1D5DB"/><path fill="#FFFFFF" d="M22.58 18.5h1.82v13.01h-2.13V23.1q0-.5.06-1.09l-3.94 7.39q-.28.53-.85.53h-.35q-.57 0-.85-.53l-3.98-7.41q.03.29.05.58.01.29.01.53v8.41h-2.13V18.5h2.11q.11.01.21.05.09.04.17.12t.15.21l3.9 7.23q.15.29.28.59.13.31.26.63.12-.33.26-.64.13-.31.28-.6l3.85-7.21q.07-.13.15-.21t.18-.12q.09-.04.21-.05zM39.71 25q0 1.43-.47 2.65t-1.34 2.11q-.86.89-2.07 1.39-1.22.5-2.7.5t-2.7-.5q-1.21-.5-2.08-1.39t-1.34-2.11q-.48-1.22-.48-2.65t.48-2.65q.47-1.22 1.34-2.11t2.08-1.39q1.22-.5 2.7-.5.99 0 1.86.23t1.6.65 1.31 1.02q.58.59.99 1.33.4.74.61 1.6.21.87.21 1.82m-2.47 0q0-1.07-.29-1.92t-.82-1.44q-.53-.6-1.29-.91-.76-.32-1.71-.32-.96 0-1.72.32-.76.31-1.3.91-.53.59-.82 1.44T29 25t.29 1.92.82 1.44q.54.59 1.3.91.76.31 1.72.31.95 0 1.71-.31.76-.32 1.29-.91t.82-1.44.29-1.92"/></svg>