<svg xmlns="http://www.w3.org/2000/svg" width="50" height="50" viewBox="0 0 50 50"><rect width="100%" height="100%" fill="#D1D5DB"/><path fill="#FFFFFF" d="m21.05 18.255-.77 1.46q-.14.24-.3.35-.15.11-.38.11-.24 0-.53-.18-.28-.18-.67-.4t-.91-.4q-.53-.17-1.24-.17-.64 0-1.13.15-.48.16-.81.43-.32.28-.48.66-.17.39-.17.85 0 .58.33.98.33.39.87.66.54.28 1.23.5t1.42.46q.72.25 1.41.58t1.23.83.87 1.22q.33.73.33 1.76 0 1.13-.39 2.11-.38.98-1.13 1.71-.74.73-1.81 1.15t-2.45.42q-.79 0-1.56-.15-.77-.16-1.48-.44-.71-.29-1.33-.69-.62-.41-1.1-.9l.91-1.48q.11-.17.3-.27.18-.11.39-.11.29 0 .62.23.33.24.79.53.46.28 1.08.52.61.23 1.48.23 1.32 0 2.04-.62.73-.63.73-1.8 0-.66-.33-1.07-.33-.42-.87-.7t-1.23-.47q-.69-.2-1.4-.43-.72-.23-1.41-.55t-1.23-.84-.86-1.3q-.33-.77-.33-1.91 0-.91.36-1.77t1.05-1.53 1.7-1.07q1.02-.4 2.33-.4 1.47 0 2.71.46t2.12 1.29m18.85 6.75q0 1.82-.61 3.38-.6 1.56-1.71 2.7-1.1 1.14-2.65 1.78-1.55.63-3.45.63-1.89 0-3.44-.63-1.55-.64-2.66-1.78t-1.72-2.7-.61-3.38q0-1.83.61-3.39t1.72-2.7 2.66-1.77q1.55-.64 3.44-.64 1.26 0 2.38.29 1.11.29 2.05.83.93.53 1.67 1.3.74.76 1.26 1.71.52.94.79 2.04.27 1.11.27 2.33m-3.17 0q0-1.37-.36-2.46-.37-1.09-1.05-1.85-.68-.75-1.65-1.16-.97-.4-2.19-.4t-2.19.4q-.97.41-1.66 1.16-.68.76-1.05 1.85t-.37 2.46q0 1.36.37 2.45t1.05 1.84q.69.75 1.66 1.16.97.4 2.19.4t2.19-.4q.97-.41 1.65-1.16t1.05-1.84q.36-1.09.36-2.45"/></svg>