<svg xmlns="http://www.w3.org/2000/svg" width="1200" height="630" viewBox="0 0 1200 630"><rect width="100%" height="100%" fill="#7295f7"/><path fill="#FFFFFF" d="m324.38 250.365-5.89 11.18q-1.06 1.84-2.25 2.68-1.18.84-2.94.84-1.85 0-4.01-1.37-2.15-1.36-5.15-3.03-2.99-1.68-6.99-3.04-4.01-1.36-9.46-1.36-4.93 0-8.63 1.18-3.69 1.19-6.2 3.3-2.51 2.12-3.74 5.06-1.23 2.95-1.23 6.47 0 4.49 2.51 7.48 2.5 2.99 6.64 5.11 4.14 2.11 9.42 3.78t10.82 3.56q5.54 1.9 10.82 4.4 5.28 2.51 9.42 6.34t6.64 9.37q2.51 5.55 2.51 13.47 0 8.62-2.95 16.14-2.94 7.53-8.62 13.12-5.68 5.58-13.86 8.8-8.18 3.21-18.74 3.21-6.08 0-11.97-1.19-5.9-1.19-11.31-3.39t-10.16-5.28q-4.76-3.08-8.45-6.86l6.95-11.35q.88-1.24 2.29-2.07 1.41-.84 2.99-.84 2.2 0 4.75 1.81 2.55 1.8 6.07 4t8.23 4q4.71 1.81 11.31 1.81 10.12 0 15.66-4.8 5.55-4.79 5.55-13.77 0-5.02-2.51-8.18-2.51-3.17-6.64-5.33-4.14-2.15-9.42-3.65t-10.74-3.26q-5.45-1.76-10.73-4.22t-9.42-6.42q-4.13-3.96-6.64-9.9t-2.51-14.66q0-6.95 2.77-13.55t8.05-11.7q5.28-5.11 13.03-8.19 7.74-3.08 17.77-3.08 11.27 0 20.77 3.52 9.51 3.52 16.19 9.86m59.4 23.58q10.04 0 18.26 3.26 8.23 3.26 14.08 9.24 5.86 5.98 9.02 14.61 3.17 8.62 3.17 19.27 0 10.74-3.17 19.36-3.16 8.62-9.02 14.7-5.85 6.07-14.08 9.32-8.22 3.26-18.26 3.26-10.12 0-18.39-3.26-8.27-3.25-14.12-9.32-5.85-6.08-9.07-14.7-3.21-8.62-3.21-19.36 0-10.65 3.21-19.27 3.22-8.63 9.07-14.61t14.12-9.24 18.39-3.26m0 76.3q11.27 0 16.68-7.57t5.41-22.17q0-14.61-5.41-22.27-5.41-7.65-16.68-7.65-11.44 0-16.94 7.7t-5.5 22.22 5.5 22.13 16.94 7.61m61.43-115.37h21.73v130.77h-21.73zm44.17 40.48h21.83v90.29h-21.83zm24.82-26.31q0 2.82-1.14 5.28-1.15 2.46-3.04 4.31t-4.44 2.95q-2.56 1.1-5.46 1.1-2.82 0-5.32-1.1-2.51-1.1-4.36-2.95t-2.95-4.31-1.1-5.28q0-2.9 1.1-5.46 1.1-2.55 2.95-4.4 1.85-1.84 4.36-2.94 2.5-1.1 5.32-1.1 2.9 0 5.46 1.1 2.55 1.1 4.44 2.94 1.89 1.85 3.04 4.4 1.14 2.56 1.14 5.46m19.45-14.17h21.73v130.77h-21.73zm83.42 39.07q10.03 0 18.26 3.26t14.08 9.24 9.02 14.61q3.17 8.62 3.17 19.27 0 10.74-3.17 19.36t-9.02 14.7q-5.85 6.07-14.08 9.32-8.23 3.26-18.26 3.26-10.12 0-18.39-3.26-8.27-3.25-14.12-9.32-5.86-6.08-9.07-14.7t-3.21-19.36q0-10.65 3.21-19.27 3.21-8.63 9.07-14.61 5.85-5.98 14.12-9.24t18.39-3.26m0 76.3q11.27 0 16.68-7.57t5.41-22.17q0-14.61-5.41-22.27-5.41-7.65-16.68-7.65-11.44 0-16.94 7.7t-5.5 22.22 5.5 22.13 16.94 7.61m117.83-11.35v-40.48q-3.6-4.49-8-6.34t-9.42-1.85q-4.93 0-8.89 1.85t-6.77 5.59q-2.82 3.74-4.32 9.5-1.49 5.77-1.49 13.6 0 7.92 1.27 13.42 1.28 5.5 3.66 8.98 2.37 3.47 5.8 5.01 3.44 1.54 7.66 1.54 6.78 0 11.53-2.81 4.75-2.82 8.97-8.01m8.45-63.54h13.29v119.77H734.9v-40.92q-5.36 5.72-12.14 9.24t-15.75 3.52q-7.39 0-13.55-3.08t-10.61-8.93q-4.44-5.85-6.86-14.48-2.42-8.62-2.42-19.71 0-10.03 2.73-18.66 2.72-8.62 7.83-14.96 5.1-6.33 12.23-9.9 7.13-3.56 16.02-3.56 8.44 0 14.16 2.9 5.72 2.91 10.21 7.84l1.15-5.11q1.14-3.96 5.45-3.96m90.82 0h21.73v90.29h-13.28q-4.32 0-5.46-3.96l-1.5-7.22q-5.54 5.64-12.23 9.11-6.69 3.48-15.75 3.48-7.39 0-13.07-2.51-5.67-2.51-9.55-7.08-3.87-4.58-5.85-10.87t-1.98-13.86v-57.38h21.74v57.38q0 8.27 3.83 12.8 3.82 4.53 11.48 4.53 5.63 0 10.56-2.5 4.93-2.51 9.33-6.91zm107.8 0h17.42l-49.19 115.11q-.97 2.28-2.51 3.47t-4.71 1.19h-16.19l16.9-36.26-36.52-83.51h19.09q2.56 0 4.01 1.23 1.45 1.24 2.15 2.82l19.19 46.82q.97 2.37 1.63 4.75.66 2.37 1.27 4.84.79-2.47 1.59-4.89.79-2.42 1.76-4.79l18.12-46.73q.71-1.76 2.34-2.9 1.62-1.15 3.65-1.15"/></svg>